<svg width="90" height="73" viewBox="0 0 90 73" fill="none" xmlns="http://www.w3.org/2000/svg">
<path d="M11.0528 11.4959V23.5128C11.0528 25.1337 10.1305 25.9441 8.28607 25.9441C6.44162 25.9441 5.51939 25.1337 5.51939 23.5128V11.4959H2.72476C1.23429 11.4959 0.48906 10.7553 0.48906 9.27415C0.48906 7.793 1.23429 7.05242 2.72476 7.05242H13.8753C15.3658 7.05242 16.111 7.793 16.111 9.27415C16.111 10.7553 15.3658 11.4959 13.8753 11.4959H11.0528ZM37.0707 16.3026C37.0707 19.2184 36.1252 21.5798 34.2342 23.387C32.3432 25.1849 29.9491 26.0838 27.052 26.0838C24.1549 26.0838 21.7701 25.1849 19.8977 23.387C18.0253 21.5798 17.0891 19.2184 17.0891 16.3026C17.0891 13.3869 18.0207 11.0255 19.8838 9.21826C21.7469 7.40175 24.1456 6.4935 27.0799 6.4935C30.0236 6.4935 32.4223 7.40175 34.2761 9.21826C36.1392 11.0255 37.0707 13.3869 37.0707 16.3026ZM30.4475 12.7954C29.6091 11.8732 28.4912 11.412 27.0939 11.412C25.6966 11.412 24.5741 11.8778 23.7264 12.8094C22.8787 13.7316 22.4548 14.9007 22.4548 16.3166C22.4548 17.7232 22.8787 18.883 23.7264 19.7959C24.5741 20.7088 25.6919 21.1653 27.0799 21.1653C28.4773 21.1653 29.5951 20.7042 30.4335 19.782C31.2812 18.8597 31.7051 17.6953 31.7051 16.2887C31.7051 14.882 31.2859 13.7176 30.4475 12.7954ZM53.573 25.9162H47.9558C46.1114 25.9162 45.1891 25.1057 45.1891 23.4848V9.48375C45.1891 7.86287 46.1114 7.05242 47.9558 7.05242H53.573C56.6564 7.40641 58.7803 9.11113 59.9448 12.1666C60.5223 13.5919 60.8111 15.0357 60.8111 16.4983C60.8111 17.9515 60.5223 19.386 59.9448 20.802C58.7803 23.8575 56.6564 25.5622 53.573 25.9162ZM55.683 16.3166C55.6736 12.7674 54.3555 10.9463 51.7286 10.8531H50.7225V22.0316L51.7286 22.0596C54.3741 21.7801 55.6923 19.8658 55.683 16.3166ZM81.7848 16.3026C81.7848 19.2184 80.8393 21.5798 78.9482 23.387C77.0572 25.1849 74.6631 26.0838 71.766 26.0838C68.8689 26.0838 66.4842 25.1849 64.6118 23.387C62.7394 21.5798 61.8032 19.2184 61.8032 16.3026C61.8032 13.3869 62.7347 11.0255 64.5978 9.21826C66.4609 7.40175 68.8596 6.4935 71.794 6.4935C74.7377 6.4935 77.1364 7.40175 78.9901 9.21826C80.8532 11.0255 81.7848 13.3869 81.7848 16.3026ZM75.1615 12.7954C74.3231 11.8732 73.2053 11.412 71.808 11.412C70.4106 11.412 69.2881 11.8778 68.4404 12.8094C67.5927 13.7316 67.1689 14.9007 67.1689 16.3166C67.1689 17.7232 67.5927 18.883 68.4404 19.7959C69.2881 20.7088 70.406 21.1653 71.794 21.1653C73.1913 21.1653 74.3091 20.7042 75.1475 19.782C75.9952 18.8597 76.4191 17.6953 76.4191 16.2887C76.4191 14.882 75.9999 13.7176 75.1615 12.7954Z" fill="url(#paint0_linear_1_14)"/>
<path d="M17.5722 62.2504H5.76442C2.69626 62.2504 1.16218 60.9023 1.16218 58.206V34.9159C1.16218 32.2197 2.69626 30.8715 5.76442 30.8715C8.83258 30.8715 10.3667 32.2197 10.3667 34.9159V54.859H17.5722C19.4937 54.859 20.4544 56.0909 20.4544 58.5547C20.4544 61.0185 19.4937 62.2504 17.5722 62.2504ZM31.9832 58.206C31.9832 60.9023 30.4491 62.2504 27.381 62.2504C24.3128 62.2504 22.7788 60.9023 22.7788 58.206V34.9159C22.7788 32.2197 24.3128 30.8715 27.381 30.8715C30.4491 30.8715 31.9832 32.2197 31.9832 34.9159V58.206ZM46.8359 62.3434C43.8607 62.3434 40.9708 61.8708 38.166 60.9255C35.3613 59.9803 33.9589 58.2913 33.9589 55.8584C33.9589 53.4256 35.0591 52.2092 37.2595 52.2092C37.5849 52.2092 38.8788 52.6353 41.1412 53.4876C43.4036 54.3399 45.3561 54.766 46.9986 54.766C48.6567 54.766 49.4857 54.0687 49.4857 52.6741C49.4857 51.7598 48.9201 51.0005 47.7889 50.3962C46.6577 49.7764 45.0771 49.1333 43.0472 48.467C41.0327 47.8006 39.7698 47.297 39.2585 46.9561C36.9031 45.3911 35.7255 43.1132 35.7255 40.1225C35.7255 37.1163 36.7094 34.6835 38.6774 32.824C40.5989 30.9955 42.869 30.0813 45.4878 30.0813C48.1066 30.0813 50.3844 30.3679 52.3214 30.9413C55.9474 32.088 57.404 33.7847 56.6912 36.0316C55.9939 38.263 54.7077 39.3012 52.8328 39.1463C52.6623 39.1463 51.7326 38.8286 50.0435 38.1933C48.3545 37.558 46.8514 37.2403 45.5343 37.2403C44.2326 37.2403 43.5818 37.8834 43.5818 39.1695C43.5818 39.9908 44.1319 40.7036 45.2321 41.3079C46.3478 41.8968 47.9129 42.5476 49.9273 43.2604C51.9418 43.9577 53.2202 44.4923 53.7625 44.8642C56.1488 46.4758 57.342 48.8776 57.342 52.0697C57.342 55.2464 56.3193 57.7644 54.2739 59.6239C52.3059 61.4369 49.8266 62.3434 46.8359 62.3434ZM76.5413 38.263V58.2525C76.5413 60.9488 75.0072 62.2969 71.939 62.2969C68.8709 62.2969 67.3368 60.9488 67.3368 58.2525V38.263H62.6881C60.2087 38.263 58.9691 37.0311 58.9691 34.5673C58.9691 32.1034 60.2087 30.8715 62.6881 30.8715H81.2365C83.7158 30.8715 84.9554 32.1034 84.9554 34.5673C84.9554 37.0311 83.7158 38.263 81.2365 38.263H76.5413Z" fill="url(#paint1_linear_1_14)"/>
<defs>
<linearGradient id="paint0_linear_1_14" x1="44.7496" y1="0" x2="44.7496" y2="28.1984" gradientUnits="userSpaceOnUse">
<stop stop-color="#FF7838"/>
<stop offset="0.71875" stop-color="#EE5B6E"/>
<stop offset="0.982167" stop-color="#EB5676"/>
</linearGradient>
<linearGradient id="paint1_linear_1_14" x1="43" y1="18.3899" x2="43" y2="72.3899" gradientUnits="userSpaceOnUse">
<stop stop-color="#FF7838"/>
<stop offset="0.71875" stop-color="#EE5B6E"/>
<stop offset="0.982167" stop-color="#EB5676"/>
</linearGradient>
</defs>
</svg>
